<svg xmlns="http://www.w3.org/2000/svg" id="Line" viewBox="0 0 64 64" width="100px" height="100px">
<path d="M55,8H9a5.00588,5.00588,0,0,0-5,5V51a5.00588,5.00588,0,0,0,5,5H55a5.00588,5.00588,0,0,0,5-5V13A5.00588,5.00588,0,0,0,55,8Zm3,43a3.00328,3.00328,0,0,1-3,3H9a3.00328,3.00328,0,0,1-3-3V19.64258H23a.99974.99974,0,0,0,.66113-.25L26.37744,17H58Zm0-36H26a.99974.99974,0,0,0-.66113.25l-2.71631,2.39258H6V13a3.00328,3.00328,0,0,1,3-3H55a3.00328,3.00328,0,0,1,3,3Z" fill="#053658"/>
<path d="M10.99994,12.82141a1.00019,1.00019,0,0,0,.00006,2A1.00019,1.00019,0,0,0,10.99994,12.82141Z" fill="#053658" />
<path d="M14.99994,12.82141a1.00019,1.00019,0,0,0,.00006,2A1.00019,1.00019,0,0,0,14.99994,12.82141Z" fill="#053658" />
<path d="M18.99994,12.82141a1.00019,1.00019,0,0,0,.00006,2A1.00019,1.00019,0,0,0,18.99994,12.82141Z" fill="#053658" />
<path d="M14,23.82129a.99973.99973,0,0,0-1,1v8a.99974.99974,0,0,0,1,1H26a.99974.99974,0,0,0,1-1v-8a.99973.99973,0,0,0-1-1Zm11,8H15v-6H25Z" fill="#053658" />
<path d="M31.00006,25.82129H50a1.0002,1.0002,0,0,0,0-2H31A1.0002,1.0002,0,0,0,31.00006,25.82129Z" fill="#053658" />
<path d="M31.00006,33.82129H50a1.0002,1.0002,0,0,0,0-2H31A1.0002,1.0002,0,0,0,31.00006,33.82129Z" fill="#053658" />
<path d="M50,39.82129H14a1.00012,1.00012,0,0,0,.00006,2H50A1.00011,1.00011,0,0,0,50,39.82129Z" fill="#053658" />
<path d="M50,47.82129H14a1.00012,1.00012,0,0,0,.00006,2H50A1.00011,1.00011,0,0,0,50,47.82129Z" fill="#053658" />
</svg>