<svg xmlns="http://www.w3.org/2000/svg" viewBox="0 0 64 64">
    <g id="Layer_32" data-name="Layer 32" fill="#053658">
        <path d="M32,25H26a1,1,0,0,0-1,1v6a1,1,0,0,0,1,1h6a1,1,0,0,0,1-1V26A1,1,0,0,0,32,25Zm-1,6H27V27h4Z" />
        <path d="M36,33h6a1,1,0,0,0,1-1V26a1,1,0,0,0-1-1H36a1,1,0,0,0-1,1v6A1,1,0,0,0,36,33Zm1-6h4v4H37Z" />
        <path d="M46,33h6a1,1,0,0,0,1-1V26a1,1,0,0,0-1-1H46a1,1,0,0,0-1,1v6A1,1,0,0,0,46,33Zm1-6h4v4H47Z" />
        <path d="M32,35H26a1,1,0,0,0-1,1v6a1,1,0,0,0,1,1h6a1,1,0,0,0,1-1V36A1,1,0,0,0,32,35Zm-1,6H27V37h4Z" />
        <path d="M12,35H6a1,1,0,0,0-1,1v6a1,1,0,0,0,1,1h6a1,1,0,0,0,1-1V36A1,1,0,0,0,12,35Zm-1,6H7V37h4Z" />
        <path d="M22,35H16a1,1,0,0,0-1,1v6a1,1,0,0,0,1,1h6a1,1,0,0,0,1-1V36A1,1,0,0,0,22,35Zm-1,6H17V37h4Z" />
        <path d="M32,45H26a1,1,0,0,0-1,1v6a1,1,0,0,0,1,1h6a1,1,0,0,0,1-1V46A1,1,0,0,0,32,45Zm-1,6H27V47h4Z" />
        <path d="M12,45H6a1,1,0,0,0-1,1v6a1,1,0,0,0,1,1h6a1,1,0,0,0,1-1V46A1,1,0,0,0,12,45Zm-1,6H7V47h4Z" />
        <path d="M22,45H16a1,1,0,0,0-1,1v6a1,1,0,0,0,1,1h6a1,1,0,0,0,1-1V46A1,1,0,0,0,22,45Zm-1,6H17V47h4Z" />
        <path
            d="M57,38.624V12a5.006,5.006,0,0,0-5-5V6a3,3,0,0,0-6,0V7H42V6a3,3,0,0,0-6,0V7H32V6a3,3,0,0,0-6,0V7H22V6a3,3,0,0,0-6,0V7H12V6A3,3,0,0,0,6,6V7a5.006,5.006,0,0,0-5,5V54a5.006,5.006,0,0,0,5,5H44.381A11.989,11.989,0,1,0,57,38.624ZM48,6a1,1,0,0,1,2,0v6a1,1,0,0,1-2,0ZM38,6a1,1,0,0,1,2,0v6a1,1,0,0,1-2,0ZM28,6a1,1,0,0,1,2,0v6a1,1,0,0,1-2,0ZM18,6a1,1,0,0,1,2,0v6a1,1,0,0,1-2,0ZM8,6a1,1,0,0,1,2,0v6a1,1,0,0,1-2,0ZM6,9v3a3,3,0,0,0,6,0V9h4v3a3,3,0,0,0,6,0V9h4v3a3,3,0,0,0,6,0V9h4v3a3,3,0,0,0,6,0V9h4v3a3,3,0,0,0,6,0V9a3,3,0,0,1,3,3v7H3V12A3,3,0,0,1,6,9ZM3,54V21H55V37.7a11.815,11.815,0,0,0-2-.519V36a1,1,0,0,0-1-1H46a1,1,0,0,0-1,1v2.624a12.013,12.013,0,0,0-2,1.457V36a1,1,0,0,0-1-1H36a1,1,0,0,0-1,1v6a1,1,0,0,0,1,1h4.624a11.868,11.868,0,0,0-.924,2H36a1,1,0,0,0-1,1v6a1,1,0,0,0,1,1h3.7a12,12,0,0,0,2.381,4H6A3,3,0,0,1,3,54ZM47,37.7V37h4A11.922,11.922,0,0,0,47,37.7ZM41,41H37V37h4ZM39.181,51H37V47h2.181a11.14,11.14,0,0,0,0,4ZM51,59A10,10,0,1,1,61,49,10.011,10.011,0,0,1,51,59Z" />
        <path
            d="M55.293,42.293,49,48.586l-2.293-2.293a1,1,0,0,0-1.414,0l-3,3a1,1,0,0,0,0,1.414l6,6a1,1,0,0,0,1.414,0l10-10a1,1,0,0,0,0-1.414l-3-3A1,1,0,0,0,55.293,42.293ZM49,54.586,44.414,50,46,48.414l2.293,2.293a1,1,0,0,0,1.414,0L56,44.414,57.586,46Z" />
    </g>
</svg>