<svg xmlns="http://www.w3.org/2000/svg" viewBox="0 0 48 48" width="100px" height="100px">
  <g id="Icons">
    <circle cx="18" cy="29" r="1" fill="#053658" />
    <path d="M15,23a1,1,0,0,0,1-1,2,2,0,1,1,2,2,1,1,0,0,0-1,1v1a1,1,0,0,0,2,0v-.126A4,4,0,1,0,14,22,1,1,0,0,0,15,23Z" fill="#053658" />
    <path d="M43,5H17a3,3,0,0,0-3,3v3H5a3,3,0,0,0-3,3V34a3,3,0,0,0,3,3h.962v5a1,1,0,0,0,1.707.707L13.376,37H31a3,3,0,0,0,3-3V14a3,3,0,0,0-3-3H16V8a1,1,0,0,1,1-1H43a1,1,0,0,1,1,1V28a1,1,0,0,1-1,1H41.038a1,1,0,0,0-1,1v3.586l-2.481-2.481a1,1,0,1,0-1.414,1.414l4.188,4.188A1,1,0,0,0,42.038,36V31H43a3,3,0,0,0,3-3V8A3,3,0,0,0,43,5ZM32,14V34a1,1,0,0,1-1,1H12.962a1,1,0,0,0-.707.293L7.962,39.586V36a1,1,0,0,0-1-1H5a1,1,0,0,1-1-1V14a1,1,0,0,1,1-1H31A1,1,0,0,1,32,14Z" fill="#053658" />
    <path d="M37,14h4a1,1,0,0,0,0-2H37a1,1,0,0,0,0,2Z" fill="#053658" />
    <path d="M37,19h4a1,1,0,0,0,0-2H37a1,1,0,0,0,0,2Z"  fill="#053658" />
    <path d="M37,24h4a1,1,0,0,0,0-2H37a1,1,0,0,0,0,2Z"  fill="#053658" />
  </g>
</svg>