<svg xmlns="http://www.w3.org/2000/svg" version="1.0" width="100px" height="100px"  viewBox="0 0 743.000000 729.000000" preserveAspectRatio="xMidYMid meet">

    <g transform="translate(0.000000,729.000000) scale(0.100000,-0.100000)" fill="#053658">
    <path d="M2979 7275 c-230 -36 -416 -104 -654 -240 -175 -100 -439 -352 -563 -539 -77 -117 -182 -321 -182 -355 0 -12 -4 -21 -10 -21 -5 0 -16 -21 -24 -47 -8 -27 -21 -64 -29 -83 -21 -50 -63 -257 -76 -375 -27 -257 -23 -555 10 -785 17 -117 74 -359 112 -472 45 -133 129 -311 200 -419 60 -93 196 -266 246 -313 17 -17 31 -33 31 -37 0 -4 -37 -20 -82 -34 -85 -28 -103 -35 -268 -100 -101 -41 -385 -178 -410 -199 -8 -7 -23 -16 -33 -19 -25 -9 -150 -92 -242 -160 -196 -146 -334 -279 -488 -472 -124 -154 -197 -268 -277 -430 -89 -180 -150 -363 -197 -584 l-38 -176 0 -575 0 -575 24 -48 c27 -52 75 -94 130 -113 28 -9 514 -12 2109 -13 1966 -1 2072 0 2071 17 0 10 -41 48 -99 90 -54 40 -136 109 -183 152 l-85 80 -1821 0 -1821 0 0 423 c0 442 5 516 50 717 80 362 240 656 528 970 54 58 124 128 156 155 68 56 263 205 270 205 2 0 40 22 83 48 107 67 241 136 343 177 96 40 100 41 100 20 0 -25 118 -248 165 -310 162 -215 329 -352 575 -471 41 -20 84 -41 94 -47 61 -31 260 -87 376 -107 91 -15 302 -29 349 -23 l39 5 17 86 c9 47 28 124 41 169 13 46 24 85 24 86 0 2 -78 3 -172 4 -180 0 -282 13 -422 55 -37 11 -73 21 -80 22 -6 1 -20 7 -31 13 -11 6 -38 16 -59 23 -67 22 -246 149 -344 244 -51 50 -97 93 -102 94 -6 2 -10 7 -10 12 0 4 -20 41 -44 81 -48 79 -93 185 -83 195 3 3 48 16 100 28 l95 23 101 -44 c56 -23 108 -43 114 -43 7 0 17 -4 23 -10 14 -14 241 -77 344 -95 164 -30 366 -30 598 -1 95 12 313 83 447 146 242 113 534 374 706 633 61 91 163 289 204 398 120 313 179 735 156 1112 -15 232 -23 284 -78 507 -43 176 -155 430 -241 548 -150 206 -348 401 -526 520 -213 141 -506 251 -751 281 -120 15 -399 12 -506 -4z m383 -310 c271 -32 422 -83 649 -220 91 -55 245 -182 325 -266 152 -160 287 -398 343 -603 24 -88 65 -316 57 -323 -2 -3 -44 35 -93 84 -193 195 -349 473 -414 736 -24 95 -38 120 -82 147 -57 35 -147 19 -189 -34 -110 -140 -152 -187 -225 -251 -47 -41 -110 -91 -140 -111 -87 -58 -254 -133 -360 -161 -89 -25 -114 -27 -283 -27 l-185 -1 -115 41 c-175 63 -179 65 -277 131 -154 103 -182 111 -258 70 -34 -19 -53 -45 -130 -178 -80 -138 -168 -269 -180 -269 -7 0 4 57 32 160 72 267 296 588 548 785 87 68 112 83 255 155 149 75 250 103 510 138 36 5 68 10 72 11 3 0 66 -6 140 -14z m682 -1047 c48 -104 116 -226 139 -250 6 -7 26 -33 42 -57 17 -25 82 -97 145 -161 87 -88 146 -137 243 -200 l127 -85 0 -70 c0 -137 -38 -376 -86 -535 -91 -304 -275 -598 -488 -782 -75 -65 -211 -168 -221 -168 -3 0 -44 -18 -89 -39 -317 -149 -636 -168 -1024 -62 -105 29 -324 138 -417 208 -269 202 -493 550 -585 913 -34 135 -59 329 -61 479 -1 148 6 177 47 187 12 3 34 19 50 35 15 16 33 29 39 29 6 0 35 26 64 58 30 31 77 82 105 112 28 31 78 96 110 145 33 50 63 94 66 98 4 5 47 -12 96 -36 102 -51 212 -93 221 -84 3 3 20 0 38 -7 99 -42 438 -55 595 -23 104 21 202 46 222 57 10 6 24 10 33 10 23 0 177 74 273 131 92 55 252 176 252 191 0 28 23 -5 64 -94z"/>
    <path d="M5370 3609 c-120 -12 -357 -70 -475 -116 -249 -97 -444 -222 -616 -393 -182 -181 -308 -365 -414 -600 -131 -293 -182 -624 -140 -905 85 -562 409 -1047 895 -1333 193 -114 434 -202 655 -238 132 -21 414 -22 552 0 507 77 935 329 1232 722 139 186 226 358 295 588 88 289 97 602 27 880 -126 496 -454 917 -911 1168 -159 88 -435 185 -604 214 -114 19 -371 26 -496 13z m425 -335 c174 -28 333 -85 510 -182 134 -73 144 -80 251 -172 273 -232 433 -495 511 -835 35 -149 36 -360 4 -512 -102 -485 -394 -866 -831 -1084 -109 -55 -289 -112 -429 -136 -145 -25 -387 -22 -521 6 -324 68 -581 206 -810 433 -305 303 -464 723 -429 1132 29 331 206 688 474 950 75 74 198 171 261 207 328 186 659 250 1009 193z"/>
    <path d="M5525 3219 c-81 -9 -164 -36 -232 -76 -69 -40 -164 -139 -206 -214 -53 -94 -67 -161 -67 -315 l0 -132 -202 -4 c-177 -4 -211 -8 -263 -27 -162 -59 -280 -186 -342 -370 -23 -68 -25 -87 -20 -181 5 -120 25 -183 86 -276 48 -73 92 -118 156 -159 86 -55 102 -58 353 -63 l232 -4 0 -188 c0 -103 5 -212 10 -241 32 -170 174 -323 357 -385 68 -24 94 -27 198 -27 102 0 132 4 200 26 133 44 227 114 300 227 72 110 78 137 83 378 l4 212 177 0 c191 0 252 10 342 55 45 23 68 41 133 102 32 31 87 122 108 181 29 81 36 237 14 322 -48 189 -160 323 -328 392 -47 19 -76 22 -250 26 l-198 4 0 127 c0 120 -15 241 -29 241 -4 0 -7 10 -8 21 -3 32 -63 116 -133 186 -80 80 -193 140 -298 159 -85 15 -78 15 -177 3z m180 -356 c16 -8 43 -27 58 -42 56 -51 57 -58 57 -345 0 -281 3 -305 47 -325 16 -7 122 -11 311 -11 258 0 291 -2 327 -19 74 -34 115 -102 115 -191 0 -84 -51 -160 -121 -180 -19 -6 -167 -10 -330 -10 -277 0 -298 -1 -320 -19 l-24 -19 -5 -340 c-6 -384 -2 -365 -89 -427 -38 -27 -52 -30 -130 -33 -73 -3 -95 0 -127 16 -51 27 -92 70 -104 113 -6 19 -10 172 -10 345 0 292 -1 313 -19 335 l-19 24 -340 5 c-326 5 -342 6 -369 26 -126 93 -98 297 49 358 31 13 90 16 351 16 254 0 317 3 333 14 18 13 19 32 24 298 6 313 6 316 74 375 31 28 62 42 121 57 31 7 106 -4 140 -21z"/>
    </g>
    </svg>