
    <svg xmlns="http://www.w3.org/2000/svg" version="1.0" width="100px" height="100px" viewBox="0 0 462.000000 573.000000" preserveAspectRatio="xMidYMid meet">

        <g transform="translate(0.000000,573.000000) scale(0.100000,-0.100000)" fill="#053658">
            <path d="M2120 5580 c-524 -38 -1028 -265 -1408 -634 -156 -151 -359 -422 -446 -595 -88 -174 -182 -443 -215 -614 -84 -436 -30 -855 169 -1299 158 -352 496 -831 1004 -1423 175 -204 622 -690 781 -851 112 -113 137 -133 182 -147 95 -29 129 -10 328 195 271 278 578 618 916 1014 154 181 389 490 505 664 284 424 428 752 499 1130 102 550 -56 1140 -449 1670 -92 125 -315 348 -442 442 -354 263 -746 410 -1189 448 -66 5 -122 9 -125 8 -3 0 -52 -4 -110 -8z m301 -180 c519 -53 1041 -342 1382 -764 468 -582 597 -1237 372 -1896 -162 -474 -523 -995 -1245 -1800 -285 -318 -540 -584 -604 -631 -44 -33 -108 -39 -155 -15 -37 20 -469 461 -645 660 -837 946 -1176 1478 -1292 2026 -101 478 -17 941 254 1398 92 155 192 283 327 417 353 354 779 560 1255 608 79 8 254 6 351 -3z"/>
            <path d="M2010 4601 c-347 -76 -607 -247 -813 -533 -140 -195 -212 -409 -223 -658 -10 -229 31 -422 135 -635 151 -309 398 -523 725 -630 144 -47 254 -65 401 -65 253 0 506 76 715 215 96 64 227 190 304 292 176 235 279 596 247 870 -64 548 -433 980 -965 1130 -126 35 -396 43 -526 14z m407 -166 c298 -57 562 -236 741 -504 212 -316 228 -753 42 -1099 -159 -294 -424 -492 -749 -557 -109 -23 -393 -16 -491 10 -407 110 -733 467 -800 877 -14 92 -12 292 5 389 49 284 232 552 492 726 102 68 270 137 378 157 107 19 284 20 382 1z"/>
            <path d="M2179 4021 l-29 -29 0 -255 c0 -236 -1 -257 -19 -278 -19 -24 -21 -24 -279 -29 -245 -5 -262 -6 -289 -26 -16 -12 -32 -36 -37 -58 -8 -30 -6 -41 11 -64 34 -45 68 -51 330 -51 l242 -1 20 -26 c20 -25 21 -39 21 -251 0 -273 6 -293 92 -293 19 0 39 10 59 29 l29 29 0 231 c0 229 0 230 24 258 l24 28 254 0 c139 0 263 4 276 8 26 10 52 55 52 90 0 35 -36 75 -78 87 -20 5 -141 10 -270 10 l-233 0 -24 26 -25 27 0 254 0 255 -29 29 c-20 20 -39 29 -61 29 -22 0 -41 -9 -61 -29z"/>
            </g>
        </svg>

   