 <svg xmlns="http://www.w3.org/2000/svg" id="Layer_1" data-name="Layer 1" viewBox="0 0 56.3 51.9" width="100px" height="100px" >
    <defs>
      <style>
        .cls-1 {
            fill: #053658;
          }
    
          .cls-1, .cls-2 {
            stroke-width: 0px;
          }
    
          .cls-2 {
            fill: #ef4135;
          }
      </style>
    </defs>
    <path class="cls-1" d="m0,26.6C0,18.3,2.2,11.8,6.7,7.1,11.2,2.4,16.9,0,24,0s8.8,1.1,12.5,3.3c3.7,2.2,6.5,5.3,8.5,9.2,1.9,4,2.9,8.4,2.9,13.5s-1,9.6-3.1,13.6c-2.1,4-5,7-8.7,9.1s-7.8,3.1-12.2,3.1-8.9-1.1-12.6-3.4c-3.7-2.3-6.5-5.4-8.4-9.3-1.9-3.9-2.9-8.1-2.9-12.5Zm6.8.1c0,6,1.6,10.8,4.9,14.3,3.2,3.5,7.3,5.2,12.2,5.2s9.1-1.8,12.3-5.3c3.2-3.5,4.8-8.5,4.8-14.9s-.7-7.6-2.1-10.7c-1.4-3-3.4-5.4-6-7.1-2.7-1.7-5.6-2.5-8.9-2.5-4.7,0-8.7,1.6-12.1,4.8-3.4,3.2-5.1,8.6-5.1,16.2Z"/>
    <polygon class="cls-2" points="6.3 18.9 23.4 31.2 54.2 2.2 23.4 38.8 6.3 18.9"/>
    <polygon class="cls-2" points="4.3 21.4 23.8 41.9 56.3 5 23.8 50.5 4.3 21.4"/>
  </svg>

