
<svg xmlns="http://www.w3.org/2000/svg" version="1.0" width="100px" height="100px" viewBox="0 0 757.000000 762.000000" preserveAspectRatio="xMidYMid meet">

    <g transform="translate(0.000000,762.000000) scale(0.100000,-0.100000)" fill="#053658">
         <path d="M2481 7338 c-119 -117 -332 -327 -474 -468 l-257 -255 1 -434 c1 -415 0 -434 -18 -452 -17 -18 -35 -20 -184 -20 -90 0 -186 -5 -214 -11 -122 -26 -245 -117 -303 -227 -66 -122 -72 -172 -72 -597 0 -356 -1 -382 -18 -397 -16 -15 -46 -17 -209 -17 -166 0 -200 -3 -259 -21 -185 -56 -338 -221 -389 -416 -13 -49 -15 -236 -15 -1323 0 -1405 -5 -1296 68 -1450 43 -92 147 -200 238 -247 119 -63 119 -63 760 -63 550 0 582 -1 597 -18 15 -17 17 -55 17 -339 0 -361 3 -383 70 -451 74 -77 -78 -71 1951 -71 2051 -1 1886 -7 1970 78 26 25 52 64 60 86 9 28 14 140 18 368 5 276 8 329 21 337 9 6 250 10 600 10 479 0 595 3 640 15 207 55 370 235 413 455 7 36 12 470 14 1280 4 1361 7 1301 -62 1438 -74 146 -187 249 -335 303 l-81 29 -244 0 c-237 0 -246 1 -266 21 -21 21 -22 24 -17 397 2 206 1 398 -3 425 -19 118 -132 283 -236 344 -90 53 -148 63 -353 63 -162 0 -189 2 -201 17 -12 13 -15 159 -19 822 -5 746 -6 808 -23 838 -25 47 -76 102 -110 119 -86 45 -46 44 -1491 44 l-1370 0 -215 -212z m2939 -1465 c0 -1269 -1 -1378 -16 -1395 -16 -17 -80 -18 -1682 -18 -1536 0 -1667 1 -1684 17 -17 15 -18 62 -18 1079 l0 1063 26 20 c26 20 37 21 424 21 397 0 397 0 431 23 19 12 43 39 54 60 19 36 20 37 1 71 -10 19 -97 110 -193 202 -180 172 -209 206 -198 224 4 7 452 10 1430 10 l1425 0 0 -1377z m-3686 -459 c14 -14 16 -70 16 -465 0 -436 -1 -450 -20 -469 -19 -19 -33 -20 -230 -20 -197 0 -211 1 -230 20 -19 19 -20 33 -20 410 0 412 2 432 48 484 46 51 66 56 249 56 143 0 174 -3 187 -16z m4384 2 c37 -19 68 -55 87 -98 13 -32 15 -98 15 -428 0 -377 -1 -391 -20 -410 -19 -19 -33 -20 -245 -20 -212 0 -226 1 -245 20 -19 19 -20 33 -20 467 0 401 2 448 17 465 14 16 35 18 200 18 139 0 191 -3 211 -14z m944 -1249 c61 -30 105 -74 140 -140 l23 -42 3 -1279 c2 -1277 2 -1279 -18 -1322 -29 -59 -95 -122 -160 -153 l-55 -26 -570 3 c-500 3 -572 6 -587 19 -17 15 -18 61 -18 687 -1 723 0 706 -54 785 -32 45 -82 75 -154 90 -38 8 -569 11 -1841 11 -2012 0 -1853 6 -1942 -76 -82 -78 -79 -45 -79 -809 0 -670 0 -672 -21 -691 -20 -18 -45 -19 -588 -19 -559 0 -567 0 -613 22 -66 30 -133 96 -163 158 l-25 54 0 1250 c0 1241 0 1251 21 1306 29 78 98 149 174 180 l60 25 3205 -3 3205 -2 57 -28z m-1544 -1673 l22 -25 0 -1054 0 -1054 -26 -20 -27 -21 -1717 0 c-1662 0 -1717 1 -1734 19 -15 17 -17 98 -16 1082 0 942 2 1065 15 1079 23 22 353 26 2035 22 l1425 -4 23 -24z"/>
        <path d="M3724 5944 c-85 -41 -104 -93 -104 -280 0 -185 12 -174 -202 -180 -90 -3 -177 -7 -195 -10 -68 -10 -133 -96 -133 -176 0 -56 28 -101 87 -138 l47 -30 181 0 c229 0 215 10 215 -164 0 -107 3 -133 20 -166 58 -113 166 -137 257 -57 54 48 63 79 63 225 0 112 2 131 18 145 16 14 45 17 191 17 195 0 216 5 273 68 61 67 63 147 7 215 -49 60 -78 67 -269 67 -154 0 -169 2 -194 21 l-26 20 0 153 c0 140 -2 156 -23 196 -40 77 -139 111 -213 74z"/>
        <path d="M5365 3779 c-45 -11 -78 -38 -95 -79 -8 -19 -11 -87 -8 -208 3 -164 5 -183 24 -208 47 -64 62 -69 224 -72 130 -3 153 -1 192 16 74 33 83 62 83 282 0 179 -1 186 -24 219 -37 52 -72 61 -223 60 -73 -1 -151 -5 -173 -10z"/>
        <path d="M6315 3781 c-48 -12 -72 -28 -94 -65 -19 -31 -21 -48 -21 -218 0 -176 1 -187 23 -219 41 -62 71 -70 249 -67 l158 3 37 38 38 37 3 198 c3 193 3 198 -20 232 -37 55 -66 64 -213 67 -71 1 -143 -2 -160 -6z"/>
        <path d="M1023 3641 c-137 -7 -167 -20 -191 -83 -12 -30 -11 -40 1 -71 32 -75 3 -72 645 -75 560 -3 575 -2 616 18 49 23 81 77 71 120 -8 38 -55 80 -101 91 -41 9 -835 9 -1041 0z"/>
        <path d="M2410 2295 l0 -45 1375 0 1375 0 0 45 0 45 -1375 0 -1375 0 0 -45z"/>
        <path d="M2410 1845 l0 -45 1375 0 1375 0 0 45 0 45 -1375 0 -1375 0 0 -45z"/>
        <path d="M2410 1395 l0 -45 1375 0 1375 0 0 45 0 45 -1375 0 -1375 0 0 -45z"/>
        <path d="M2430 945 l0 -45 1375 0 1375 0 0 45 0 45 -1375 0 -1375 0 0 -45z"/>
        </g>
    </svg>
