<svg xmlns="http://www.w3.org/2000/svg" version="1.0" width="100px" height="100px" viewBox="0 0 512.000000 512.000000" preserveAspectRatio="xMidYMid meet">

<g transform="translate(0.000000,512.000000) scale(0.100000,-0.100000)" fill="#053658" >
<path d="M2125 5043 c-176 -94 -2094 -1209 -2107 -1225 -17 -19 -18 -94 -18 -1258 0 -1164 1 -1239 18 -1258 14 -17 1986 -1162 2111 -1226 18 -10 46 -16 60 -14 23 3 319 172 1641 936 118 68 275 159 348 201 74 42 144 86 156 98 l22 22 33 -53 c65 -108 75 -148 76 -291 0 -121 -2 -135 -29 -200 -16 -38 -45 -95 -64 -125 -75 -116 -232 -245 -398 -328 -64 -32 -74 -45 -74 -93 0 -40 32 -69 76 -69 78 0 317 76 455 145 188 95 385 266 492 427 225 338 258 745 87 1094 -114 234 -305 422 -558 548 l-92 47 0 673 c0 431 -4 684 -10 702 -6 16 -20 36 -33 44 -12 7 -492 285 -1067 617 -648 374 -1054 603 -1070 603 -14 -1 -38 -8 -55 -17z m349 -323 c157 -90 282 -168 278 -171 -28 -27 -1920 -1109 -1933 -1106 -29 8 -569 322 -566 329 3 10 1920 1118 1929 1115 3 -1 135 -76 292 -167z m674 -389 c123 -71 219 -131 215 -134 -92 -57 -1921 -1109 -1928 -1110 -11 0 -413 230 -432 247 -9 8 233 153 950 567 529 307 964 557 967 558 3 0 105 -57 228 -128z m672 -388 c160 -92 290 -170 290 -173 -1 -3 -435 -255 -966 -561 l-965 -556 -242 139 c-133 77 -263 152 -289 167 -26 14 -48 28 -48 31 1 4 1908 1111 1928 1119 1 1 133 -74 292 -166z m-3363 -482 l282 -163 3 -469 3 -469 25 -24 c14 -14 162 -104 330 -200 325 -187 348 -196 388 -153 22 23 22 28 24 445 l3 422 292 -167 292 -168 1 -1117 c0 -615 -2 -1118 -5 -1118 -3 0 -193 109 -422 241 -230 133 -544 314 -698 403 -154 89 -400 232 -547 317 l-268 154 0 1118 c0 615 3 1116 8 1114 4 -2 134 -77 289 -166z m3743 -406 c0 -316 -3 -575 -6 -575 -3 0 -40 9 -82 20 -105 26 -243 48 -362 56 l-100 7 0 144 c0 139 -1 145 -25 168 -51 52 -58 48 -393 -232 -634 -530 -660 -553 -664 -577 -11 -58 -17 -54 840 -679 147 -107 174 -116 217 -72 24 23 25 28 25 175 l0 150 23 -4 c12 -3 50 -8 85 -11 124 -12 287 -65 390 -127 46 -28 52 -36 52 -65 0 -27 -7 -37 -37 -57 -37 -23 -1836 -1062 -1880 -1085 l-23 -12 0 1118 0 1118 188 108 c103 59 536 309 962 556 426 247 778 450 783 450 4 1 7 -258 7 -574z m-3070 18 l220 -127 0 -383 0 -384 -27 15 c-49 25 -398 228 -410 238 -10 8 -13 98 -13 389 0 209 2 379 5 379 3 0 104 -57 225 -127z m2371 -630 c17 -33 52 -41 199 -47 450 -17 829 -180 1046 -450 77 -95 156 -249 186 -361 30 -114 30 -336 0 -447 -30 -112 -76 -214 -134 -304 -57 -87 -196 -232 -273 -284 l-50 -34 24 34 c42 64 99 194 116 267 26 106 17 281 -19 383 -124 353 -509 590 -963 594 -136 1 -136 1 -143 -150 l-5 -115 -352 258 c-194 142 -351 261 -350 265 1 4 160 139 352 301 l350 293 3 -90 c1 -50 7 -101 13 -113z"/>
</g>
</svg>