<svg xmlns="http://www.w3.org/2000/svg"
 xmlns:xlink="http://www.w3.org/1999/xlink"
 version="1.1" id="Layer_1" x="0px" y="0px"
  viewBox="0 0 512 512" 
  width="15px"
  height="15px"
  style="enable-background:new 0 0 512 512;"
   xml:space="preserve">
<g>
	<path d="M452.3,203.7c-4.9-11.5-13-21.2-23.2-28.1c-5.1-3.4-10.7-6.2-16.8-8.1c-6-1.9-12.4-2.9-19-2.9h-45.7   
    c-10.1,0-18.3,8.2-18.3,18.3c-0.2,10.1,8,18.2,18.1,18.2h45.7c3.8,0,7.4,0.8,10.7,2.1c4.9,2.1,9.1,5.6,12.1,10   
    c1.5,2.2,2.6,4.6,3.4,7.2c0.8,2.6,1.2,5.3,1.2,8.2V448c0,3.8-0.8,7.4-2.1,10.7c-2.1,4.9-5.6,9.1-10,12.1c-2.2,1.5-4.6,2.6-7.2,3.4  
     c-2.6,0.8-5.3,1.2-8.2,1.2H118.9c-3.8,0-7.4-0.8-10.7-2.1c-4.9-2.1-9.1-5.6-12.1-10c-1.5-2.2-2.6-4.6-3.4-7.2   
     c-0.8-2.6-1.2-5.3-1.2-8.2V228.6c0-3.8,0.8-7.4,2.1-10.7c2.1-4.9,5.6-9.1,10-12.1c2.2-1.5,4.6-2.6,7.2-3.4c2.6-0.8,5.3-1.2,8.2-1.2  
      h45.7c10.1,0,18.3-8.2,18.3-18.3c0-10.1-8.2-18.3-18.3-18.3H119c-8.8,0-17.3,1.8-24.9,5c-11.5,4.9-21.2,13-28.1,23.2   
      c-3.4,5.1-6.2,10.7-8.1,16.8c-1.9,6-2.9,12.4-2.9,19V448c0,8.8,1.8,17.3,5,24.9c4.9,11.5,13,21.2,23.2,28.1   
      c5.1,3.4,10.7,6.2,16.8,8.1c6,1.9,12.4,2.9,19,2.9h274.3c8.8,0,17.3-1.8,24.9-5c11.5-4.9,21.2-13,28.1-23.2  
       c3.4-5.1,6.2-10.7,8.1-16.8c1.9-6,2.9-12.4,2.9-19V228.6C457.3,219.8,455.5,211.3,452.3,203.7z"/>
	<path d="M177.5,122.7l60.2-60.3v267.9c0,10.1,8.2,18.3,18.3,18.3c10.1,0,18.3-8.2,18.3-18.3V62.4l60.2,60.2  
     c7.1,7.1,18.7,7.1,25.9,0c7.1-7.1,7.1-18.7,0-25.8L269.7,6.2C266.3,2.4,261.4,0,256,0c-4.4,0-8.4,1.5-11.5,4.1c0,0,0,0-0.1,0.1  
      c-0.1,0.1-0.2,0.2-0.3,0.2c-0.4,0.3-0.8,0.6-1.1,1l-91.4,91.4c-7.1,7.1-7.1,18.7,0,25.9C158.7,129.8,170.3,129.8,177.5,122.7z"/>
</g>
</svg>